<?xml version="1.0" standalone="no"?>
<!DOCTYPE svg PUBLIC "-//W3C//DTD SVG 20010904//EN"
 "http://www.w3.org/TR/2001/REC-SVG-20010904/DTD/svg10.dtd">
<svg version="1.0" xmlns="http://www.w3.org/2000/svg"
 width="512.000000pt" height="512.000000pt" viewBox="0 0 512.000000 512.000000"
 preserveAspectRatio="xMidYMid meet">

<g transform="translate(0.000000,512.000000) scale(0.100000,-0.100000)"
fill="#000000" stroke="none">
<path d="M1160 1230 c0 -110 2 -200 5 -200 9 0 98 184 106 218 14 64 -21 136
-83 168 l-28 15 0 -201z"/>
<path d="M2120 1230 c0 -110 2 -200 5 -200 9 0 98 184 106 218 14 64 -21 136
-83 168 l-28 15 0 -201z"/>
<path d="M3080 1230 c0 -110 2 -200 5 -200 9 0 98 184 106 218 14 64 -21 136
-83 168 l-28 15 0 -201z"/>
<path d="M4040 1230 c0 -110 2 -200 5 -200 9 0 98 184 106 218 14 64 -21 136
-83 168 l-28 15 0 -201z"/>
<path d="M1480 590 c0 -110 2 -200 5 -200 9 0 98 184 106 218 14 64 -21 136
-83 168 l-28 15 0 -201z"/>
<path d="M2440 590 c0 -110 2 -200 5 -200 9 0 98 184 106 218 14 64 -21 136
-83 168 l-28 15 0 -201z"/>
<path d="M3400 590 c0 -110 2 -200 5 -200 9 0 98 184 106 218 14 64 -21 136
-83 168 l-28 15 0 -201z"/>
</g>
</svg>
